<?xml version="1.0" encoding="UTF-8" standalone="no"?>
<svg width="204px" height="46px" viewBox="0 0 204 46" version="1.1" xmlns="http://www.w3.org/2000/svg" xmlns:xlink="http://www.w3.org/1999/xlink">
    <!-- Generator: Sketch 3.8.2 (29753) - http://www.bohemiancoding.com/sketch -->
    <title>Group</title>
    <desc>Created with Sketch.</desc>
    <defs></defs>
    <g id="Page-1" stroke="none" stroke-width="1" fill="none" fill-rule="evenodd">
        <g id="09-application-approval" transform="translate(-13.000000, -11.000000)">
            <g id="left">
                <g id="Group" transform="translate(13.000000, 11.000000)">
                    <path d="M48.8403614,43.3286747 L46.4655422,33.6271084 C49.6500723,31.1885542 51.5887229,27.1843373 51.5887229,22.9052289 C51.5887229,15.6876627 46.1961928,9.81351807 39.5716386,9.81351807 C32.9420964,9.81351807 27.549012,15.6876627 27.549012,22.9052289 C27.549012,25.6197831 25.3559759,27.8128193 22.6419759,27.8128193 C19.9335181,27.8128193 17.7349398,25.6197831 17.7349398,22.9052289 C17.7349398,10.2751807 27.5296145,0 39.5716386,0 C51.6081205,0 61.4027952,10.2751807 61.4027952,22.9052289 C61.4027952,30.9923614 57.2760964,38.5590843 50.6365783,42.6619518 C50.0673976,43.0105542 49.4588675,43.2305783 48.8403614,43.3286747" id="Fill-3" fill="#EFA72E"></path>
                    <path d="M43.6684096,22.949012 C43.6684096,35.5846024 33.8742892,45.8603373 21.8322651,45.8603373 C9.79522892,45.8603373 0,35.5846024 0,22.949012 C0,14.2245301 4.83387952,6.13296386 12.3174699,2.32549398 C12.3911807,2.28559036 12.4648916,2.25178313 12.5424819,2.21686747 L14.9865783,12.1927711 C11.7920723,14.6174699 9.81462651,18.6355422 9.81462651,22.949012 C9.81462651,30.1726747 15.2077108,36.0457108 21.8322651,36.0457108 C28.461253,36.0457108 33.8537831,30.1726747 33.8537831,22.949012 C33.8537831,20.2411084 36.0479277,18.0425301 38.7613735,18.0425301 C41.4703855,18.0425301 43.6684096,20.2411084 43.6684096,22.949012" id="Fill-4" fill="#595A5A"></path>
                    <path d="M84.3540241,12.8317831 C84.5208434,13.1914699 84.6593976,13.5611325 84.7691325,13.9407711 C84.877759,14.3198554 84.9581205,14.7022651 85.0102169,15.088 C84.3412771,15.3324096 83.7399518,15.4931325 83.2067952,15.5701687 C82.6730843,15.647759 82.0978072,15.686 81.4804096,15.686 C80.387494,15.686 79.429253,15.5092048 78.6067952,15.1556145 C77.7837831,14.8020241 77.0926747,14.3071084 76.5334699,13.6703133 C75.9737108,13.0340723 75.5530602,12.2786747 75.2698554,11.4041205 C74.9872048,10.5301205 74.8458795,9.57853012 74.8458795,8.54990361 C74.8458795,7.52127711 74.9933012,6.56691566 75.289253,5.68571084 C75.5852048,4.80561446 76.012506,4.04356627 76.5717108,3.40012048 C77.1314699,2.75778313 77.8186988,2.25621687 78.6356145,1.8959759 C79.4519759,1.53628916 80.3813976,1.35561446 81.4227711,1.35561446 C82.0396145,1.35561446 82.6087952,1.39440964 83.129759,1.47144578 C83.6501687,1.54903614 84.2126988,1.70975904 84.8173494,1.95416867 C84.7913012,2.3393494 84.7142651,2.71566265 84.5856867,3.082 C84.4571084,3.44833735 84.3157831,3.81855422 84.1611566,4.19098795 C83.7111325,4.03691566 83.3126506,3.92773494 82.9657108,3.86289157 C82.6182169,3.79915663 82.206988,3.76701205 81.7314699,3.76701205 C80.4966747,3.76701205 79.5484096,4.16881928 78.8861205,4.97243373 C78.2243855,5.77604819 77.8929639,6.96816867 77.8929639,8.54990361 C77.8929639,11.6873253 79.2236386,13.255759 81.8855422,13.255759 C82.3610602,13.255759 82.7789398,13.2241687 83.1391807,13.1593253 C83.4988675,13.0955904 83.904,12.9858554 84.3540241,12.8317831" id="Fill-5" fill="#EFA72E"></path>
                    <path d="M89.6384819,9.03207229 C89.201759,8.86525301 88.8093735,8.68180723 88.4624337,8.48228916 C88.1149398,8.2833253 87.818988,8.04556627 87.5751325,7.76901205 C87.3307229,7.49245783 87.1411807,7.16159036 87.0059518,6.7753012 C86.8712771,6.38956627 86.8036627,5.92679518 86.8036627,5.38698795 C86.8036627,4.7313494 86.9161687,4.15274699 87.1411807,3.65118072 C87.3661928,3.14961446 87.6843133,2.72896386 88.0960964,2.38756627 C88.5073253,2.04727711 89.002241,1.79012048 89.5808434,1.61609639 C90.1594458,1.44262651 90.8084337,1.35561446 91.5289157,1.35561446 C92.1845542,1.35561446 92.7980723,1.41380723 93.3705783,1.52963855 C93.9425301,1.64491566 94.5438554,1.81228916 95.174,2.03120482 C95.0969639,2.77662651 94.8907952,3.50985542 94.5566024,4.22978313 C94.3642892,4.15274699 94.1680964,4.07515663 93.9685783,3.99812048 C93.7690602,3.92108434 93.5567952,3.85679518 93.3323373,3.80525301 C93.1067711,3.75426506 92.8529398,3.71214458 92.5702892,3.68 C92.2876386,3.64785542 91.9656386,3.63178313 91.6059518,3.63178313 C91.3870361,3.63178313 91.1653494,3.65118072 90.9403373,3.68942169 C90.7153253,3.72821687 90.5130361,3.79915663 90.3329157,3.90168675 C90.1527952,4.00477108 90.0048193,4.15607229 89.8895422,4.35503614 C89.7737108,4.55455422 89.7155181,4.81503614 89.7155181,5.13592771 C89.7155181,5.39363855 89.7604096,5.6086747 89.850747,5.78214458 C89.9405301,5.95561446 90.063012,6.10359036 90.2170843,6.22607229 C90.3717108,6.348 90.5451807,6.45108434 90.7380482,6.53421687 C90.9309157,6.61845783 91.1237831,6.69826506 91.3166506,6.7753012 L92.4738554,7.21922892 C92.9621205,7.41209639 93.4060482,7.61161446 93.8045301,7.81722892 C94.203012,8.02284337 94.5405301,8.2766747 94.8170843,8.57872289 C95.0936386,8.8813253 95.3092289,9.24766265 95.4633012,9.67828916 C95.6173735,10.1089157 95.6944096,10.6393012 95.6944096,11.2694458 C95.6944096,11.9250843 95.5758072,12.5230843 95.3380482,13.0628916 C95.0997349,13.603253 94.7561205,14.0660241 94.3060964,14.451759 C93.8560723,14.837494 93.2996386,15.1395422 92.6379036,15.3584578 C91.9750602,15.5768193 91.2135663,15.686 90.3523133,15.686 C89.9277831,15.686 89.5486988,15.6726988 89.214506,15.647759 C88.879759,15.6217108 88.5616386,15.5801446 88.2595904,15.5219518 C87.9575422,15.4643133 87.6582651,15.3906024 87.3628675,15.3002651 C87.0669157,15.2104819 86.7582169,15.1013012 86.4367711,14.9721687 C86.4755663,14.5997349 86.546506,14.2106747 86.6490361,13.8055422 C86.7521205,13.4004096 86.8740482,12.992506 87.0159277,12.5807229 C87.5557349,12.7996386 88.0633976,12.9636867 88.5394699,13.0728675 C89.014988,13.1820482 89.5232048,13.2363614 90.063012,13.2363614 C90.8732771,13.2363614 91.5095181,13.0856145 91.9722892,12.7835663 C92.4356145,12.4815181 92.6667229,12.0215181 92.6667229,11.4041205 C92.6667229,11.0959759 92.6118554,10.8388193 92.5026747,10.6326506 C92.393494,10.4275904 92.2521687,10.2535663 92.0786988,10.112241 C91.9052289,9.97091566 91.7090361,9.85175904 91.4901205,9.7553253 C91.271759,9.65889157 91.046747,9.56578313 90.8150843,9.47544578 L89.6384819,9.03207229" id="Fill-6" fill="#EFA72E"></path>
                    <path d="M98.105253,1.58727711 C98.6195663,1.51024096 99.1144819,1.47144578 99.5905542,1.47144578 C100.09212,1.47144578 100.587036,1.51024096 101.075301,1.58727711 L104.258169,9.53363855 L107.536916,1.58727711 C107.934843,1.51024096 108.378771,1.47144578 108.867036,1.47144578 C109.355855,1.47144578 109.824723,1.51024096 110.275301,1.58727711 L110.93094,15.4543373 C110.44212,15.5319277 109.979349,15.5701687 109.542627,15.5701687 C109.105349,15.5701687 108.674723,15.5319277 108.250193,15.4543373 L107.903253,6.04262651 L105.087277,12.5613253 C104.906602,12.5873735 104.72094,12.6100964 104.527518,12.6289398 C104.335205,12.6483373 104.142337,12.6583133 103.94947,12.6583133 C103.782096,12.6583133 103.614723,12.6516627 103.447904,12.6389157 C103.28053,12.6261687 103.10706,12.6001205 102.92694,12.5613253 L100.303831,5.90739759 L100.033928,15.4543373 C99.6221446,15.5319277 99.2242169,15.5701687 98.8384819,15.5701687 C98.4266988,15.5701687 98.0021687,15.5319277 97.5654458,15.4543373 L98.105253,1.58727711" id="Fill-7" fill="#EFA72E"></path>
                    <path d="M124.025976,10.3433494 L122.425398,4.51908434 L120.747229,10.3433494 L124.025976,10.3433494 L124.025976,10.3433494 Z M120.940096,1.58727711 C121.21,1.54903614 121.467157,1.51966265 121.711566,1.50081928 C121.955976,1.48142169 122.22588,1.47144578 122.521831,1.47144578 C122.778988,1.47144578 123.029494,1.48142169 123.273904,1.50081928 C123.518313,1.51966265 123.788217,1.54903614 124.084169,1.58727711 L128.423687,15.4543373 C127.896072,15.5319277 127.381759,15.5701687 126.880193,15.5701687 C126.391928,15.5701687 125.91641,15.5319277 125.453084,15.4543373 L124.682169,12.6771566 L120.09159,12.6771566 L119.300723,15.4543373 C118.837952,15.5319277 118.394024,15.5701687 117.970048,15.5701687 C117.493976,15.5701687 117.025108,15.5319277 116.562337,15.4543373 L120.940096,1.58727711 L120.940096,1.58727711 Z" id="Fill-8" fill="#EFA72E"></path>
                    <path d="M138.662843,12.8317831 C138.829663,13.1914699 138.968217,13.5611325 139.077952,13.9407711 C139.186578,14.3198554 139.267494,14.7022651 139.319036,15.088 C138.650096,15.3324096 138.048771,15.4931325 137.515614,15.5701687 C136.981904,15.647759 136.406627,15.686 135.789229,15.686 C134.696313,15.686 133.738627,15.5092048 132.915614,15.1556145 C132.092602,14.8020241 131.401494,14.3071084 130.842289,13.6703133 C130.283084,13.0340723 129.86188,12.2786747 129.579229,11.4041205 C129.296024,10.5301205 129.154699,9.57853012 129.154699,8.54990361 C129.154699,7.52127711 129.302675,6.56691566 129.598072,5.68571084 C129.894024,4.80561446 130.32188,4.04356627 130.881084,3.40012048 C131.440289,2.75778313 132.128072,2.25621687 132.944434,1.8959759 C133.760795,1.53628916 134.690217,1.35561446 135.73159,1.35561446 C136.348988,1.35561446 136.917614,1.39440964 137.438578,1.47144578 C137.958988,1.54903614 138.521518,1.70975904 139.126169,1.95416867 C139.10012,2.3393494 139.023084,2.71566265 138.894506,3.082 C138.765928,3.44833735 138.624602,3.81855422 138.47053,4.19098795 C138.019952,4.03691566 137.62147,3.92773494 137.27453,3.86289157 C136.927036,3.79915663 136.515807,3.76701205 136.040289,3.76701205 C134.805494,3.76701205 133.857229,4.16881928 133.19494,4.97243373 C132.533205,5.77604819 132.202337,6.96816867 132.202337,8.54990361 C132.202337,11.6873253 133.532458,13.255759 136.194361,13.255759 C136.66988,13.255759 137.087759,13.2241687 137.448,13.1593253 C137.807687,13.0955904 138.212819,12.9858554 138.662843,12.8317831" id="Fill-9" fill="#EFA72E"></path>
                    <path d="M147.727614,10.3433494 L146.127036,4.51908434 L144.448867,10.3433494 L147.727614,10.3433494 L147.727614,10.3433494 Z M144.641735,1.58727711 C144.912193,1.54903614 145.168795,1.51966265 145.413205,1.50081928 C145.657614,1.48142169 145.927518,1.47144578 146.22347,1.47144578 C146.480627,1.47144578 146.731133,1.48142169 146.975542,1.50081928 C147.219952,1.51966265 147.489855,1.54903614 147.785807,1.58727711 L152.125325,15.4543373 C151.597711,15.5319277 151.083398,15.5701687 150.582386,15.5701687 C150.093566,15.5701687 149.618048,15.5319277 149.154723,15.4543373 L148.383807,12.6771566 L143.793229,12.6771566 L143.002361,15.4543373 C142.53959,15.5319277 142.096217,15.5701687 141.671687,15.5701687 C141.195614,15.5701687 140.726747,15.5319277 140.263976,15.4543373 L144.641735,1.58727711 L144.641735,1.58727711 Z" id="Fill-10" fill="#EFA72E"></path>
                    <path d="M156.58012,13.2175181 C156.695952,13.2302651 156.843373,13.243012 157.024048,13.255759 C157.203614,13.2690602 157.421976,13.2751566 157.679687,13.2751566 C158.271036,13.2751566 158.820265,13.2075422 159.328482,13.0728675 C159.836145,12.9376386 160.276747,12.6904578 160.649735,12.3302169 C161.022169,11.9705301 161.31812,11.4883614 161.537036,10.8837108 C161.755398,10.2796145 161.865133,9.50149398 161.865133,8.54990361 C161.865133,7.62436145 161.755398,6.85233735 161.537036,6.23549398 C161.31812,5.61809639 161.022169,5.12983133 160.649735,4.76959036 C160.276747,4.40990361 159.849446,4.15607229 159.367277,4.00809639 C158.885108,3.86012048 158.37412,3.78585542 157.833759,3.78585542 C157.653639,3.78585542 157.444699,3.78973494 157.20694,3.79583133 C156.969181,3.80248193 156.760241,3.81855422 156.58012,3.84404819 L156.58012,13.2175181 L156.58012,13.2175181 Z M153.745301,1.58727711 C154.285108,1.52298795 154.850964,1.4686747 155.442313,1.42378313 C156.033663,1.37833735 156.689301,1.35561446 157.409229,1.35561446 C159.83947,1.35561446 161.687783,1.96026506 162.954169,3.16901205 C164.220554,4.37775904 164.854024,6.19060241 164.854024,8.60754217 C164.854024,11.0377831 164.211133,12.8251325 162.925349,13.9695904 C161.639566,15.1140482 159.730289,15.686 157.197518,15.686 C156.541325,15.686 155.937229,15.6632771 155.384675,15.6183855 C154.831566,15.573494 154.285108,15.5186265 153.745301,15.4543373 L153.745301,1.58727711 L153.745301,1.58727711 Z" id="Fill-11" fill="#EFA72E"></path>
                    <path d="M167.187831,1.58727711 L175.056602,1.58727711 C175.133639,1.97301205 175.172434,2.36539759 175.172434,2.76387952 C175.172434,3.18840964 175.133639,3.59354217 175.056602,3.97872289 L170.003807,3.97872289 L170.003807,6.98756627 L174.015229,6.98756627 C174.092265,7.3993494 174.13106,7.79783133 174.13106,8.18356627 C174.13106,8.59479518 174.092265,8.99992771 174.015229,9.39840964 L170.003807,9.39840964 L170.003807,13.0628916 L175.191831,13.0628916 C175.268867,13.4486265 175.307663,13.841012 175.307663,14.239494 C175.307663,14.6640241 175.268867,15.0691566 175.191831,15.4543373 L167.187831,15.4543373 L167.187831,1.58727711" id="Fill-12" fill="#EFA72E"></path>
                    <path d="M177.814386,1.58727711 C178.328699,1.51024096 178.824169,1.47144578 179.299687,1.47144578 C179.801253,1.47144578 180.296169,1.51024096 180.784988,1.58727711 L183.967301,9.53363855 L187.246048,1.58727711 C187.64453,1.51024096 188.087904,1.47144578 188.576723,1.47144578 C189.064988,1.47144578 189.53441,1.51024096 189.984434,1.58727711 L190.640072,15.4543373 C190.151807,15.5319277 189.688482,15.5701687 189.251759,15.5701687 C188.814482,15.5701687 188.383855,15.5319277 187.95988,15.4543373 L187.612386,6.04262651 L184.79641,12.5613253 C184.616289,12.5873735 184.430072,12.6100964 184.237205,12.6289398 C184.044337,12.6483373 183.85147,12.6583133 183.658602,12.6583133 C183.491229,12.6583133 183.323855,12.6516627 183.157036,12.6389157 C182.989663,12.6261687 182.816193,12.6001205 182.636072,12.5613253 L180.013518,5.90739759 L179.74306,15.4543373 C179.331831,15.5319277 178.933349,15.5701687 178.547614,15.5701687 C178.135831,15.5701687 177.711301,15.5319277 177.274578,15.4543373 L177.814386,1.58727711" id="Fill-13" fill="#EFA72E"></path>
                    <path d="M196.34906,10.4979759 L192.02894,1.58727711 C192.568747,1.51024096 193.109108,1.47144578 193.648916,1.47144578 C194.137181,1.47144578 194.626,1.51024096 195.114819,1.58727711 L197.853205,7.87486747 L200.553349,1.58727711 C201.028867,1.51024096 201.517687,1.47144578 202.019253,1.47144578 C202.482024,1.47144578 202.97694,1.51024096 203.504554,1.58727711 L199.18388,10.4979759 L199.18388,15.4737349 C198.926723,15.5125301 198.682867,15.5380241 198.451205,15.5507711 C198.220096,15.5635181 197.988434,15.5701687 197.756771,15.5701687 C197.53841,15.5701687 197.310072,15.5635181 197.072313,15.5507711 C196.834,15.5380241 196.592916,15.5125301 196.34906,15.4737349 L196.34906,10.4979759" id="Fill-14" fill="#EFA72E"></path>
                    <path d="M74.9556145,18.3650843 C75.0581446,18.3484578 75.164,18.3357108 75.2748434,18.3273976 C75.3845783,18.3185301 75.4954217,18.3146506 75.6057108,18.3146506 C75.7165542,18.3146506 75.8268434,18.3185301 75.9376867,18.3273976 C76.0479759,18.3357108 76.1543855,18.3484578 76.2563614,18.3650843 L76.2563614,27.5307229 C76.1543855,27.5473494 76.0501928,27.5600964 75.9437831,27.5684096 C75.8373735,27.5767229 75.7248675,27.5811566 75.6057108,27.5811566 C75.4954217,27.5811566 75.3829157,27.5767229 75.2681928,27.5684096 C75.1534699,27.5600964 75.0492771,27.5473494 74.9556145,27.5307229 L74.9556145,18.3650843" id="Fill-15" fill="#595A5A"></path>
                    <path d="M81.6993253,18.3650843 C81.7924337,18.3484578 81.8921928,18.3357108 81.9986024,18.3273976 C82.1044578,18.3185301 82.2047711,18.3146506 82.2984337,18.3146506 C82.3915422,18.3146506 82.4913012,18.3185301 82.5977108,18.3273976 C82.7035663,18.3357108 82.8038795,18.3484578 82.8975422,18.3650843 L86.8867952,25.2484578 L86.8867952,18.3650843 C86.9887711,18.3484578 87.0951807,18.3357108 87.2060241,18.3273976 C87.3163133,18.3185301 87.4266024,18.3146506 87.5374458,18.3146506 C87.6305542,18.3146506 87.7280964,18.3185301 87.8306265,18.3273976 C87.9326024,18.3357108 88.0301446,18.3484578 88.1238072,18.3650843 L88.1238072,27.5307229 C88.0301446,27.5473494 87.9303855,27.5600964 87.8239759,27.5684096 C87.7175663,27.5767229 87.6178072,27.5811566 87.5246988,27.5811566 C87.4310361,27.5811566 87.3312771,27.5767229 87.2248675,27.5684096 C87.1184578,27.5600964 87.0186988,27.5473494 86.9255904,27.5307229 L82.9230361,20.6850361 L82.9230361,27.5307229 C82.8293735,27.5473494 82.7290602,27.5600964 82.6232048,27.5684096 C82.5167952,27.5767229 82.4131566,27.5811566 82.3111807,27.5811566 C82.2003373,27.5811566 82.0917108,27.5767229 81.9858554,27.5684096 C81.8794458,27.5600964 81.7841205,27.5473494 81.6993253,27.5307229 L81.6993253,18.3650843" id="Fill-16" fill="#595A5A"></path>
                    <path d="M95.1468434,19.4995663 L92.7631566,19.4995663 C92.7459759,19.4147711 92.7332289,19.3211084 92.7249157,19.2191325 C92.7166024,19.1171566 92.7121687,19.0201687 92.7121687,18.926506 C92.7121687,18.8328434 92.7166024,18.7369639 92.7249157,18.6394217 C92.7332289,18.5418795 92.7459759,18.4504337 92.7631566,18.3650843 L98.8307229,18.3650843 C98.8479036,18.4504337 98.8606506,18.5396627 98.8689639,18.6327711 C98.8772771,18.7264337 98.8817108,18.8200964 98.8817108,18.913759 C98.8817108,19.0074217 98.8772771,19.1066265 98.8689639,19.2130361 C98.8606506,19.3194458 98.8479036,19.4147711 98.8307229,19.4995663 L96.4470361,19.4995663 L96.4470361,27.5307229 C96.2513976,27.5556627 96.0391325,27.5684096 95.8096867,27.5684096 C95.5719277,27.5684096 95.3507952,27.5556627 95.1468434,27.5307229 L95.1468434,19.4995663" id="Fill-17" fill="#595A5A"></path>
                    <path d="M103.470627,18.3650843 L108.505687,18.3650843 C108.531181,18.5357831 108.543928,18.722 108.543928,18.926506 C108.543928,19.0201687 108.541711,19.1171566 108.537831,19.2191325 C108.533398,19.3211084 108.522867,19.4147711 108.505687,19.4995663 L104.770819,19.4995663 L104.770819,22.126 L107.753614,22.126 C107.770795,22.2107952 107.783542,22.302241 107.791855,22.3997831 C107.800169,22.4973253 107.805157,22.5932048 107.805157,22.6863133 C107.805157,22.7799759 107.800169,22.8775181 107.791855,22.9800482 C107.783542,23.0820241 107.770795,23.1756867 107.753614,23.2599277 L104.770819,23.2599277 L104.770819,26.396241 L108.607663,26.396241 C108.633157,26.5658313 108.645904,26.7531566 108.645904,26.9565542 C108.645904,27.0502169 108.643687,27.1483133 108.639807,27.2502892 C108.635373,27.3522651 108.624843,27.4453735 108.607663,27.5307229 L103.470627,27.5307229 L103.470627,18.3650843" id="Fill-18" fill="#595A5A"></path>
                    <path d="M113.528,18.3523373 C113.714771,18.3357108 113.884916,18.3185301 114.03788,18.3019036 C114.190843,18.2847229 114.34159,18.269759 114.490675,18.257012 C114.639205,18.2442651 114.793831,18.2337349 114.955663,18.2248675 C115.11694,18.2165542 115.295398,18.2126747 115.491036,18.2126747 C115.924434,18.2126747 116.353398,18.2547952 116.778482,18.3395904 C117.203012,18.4249398 117.581542,18.5734699 117.912964,18.7862892 C118.244386,18.9985542 118.513735,19.2856386 118.72212,19.6464337 C118.930506,20.0077831 119.034699,20.4644578 119.034699,21.017012 C119.034699,21.3484337 118.979277,21.6499277 118.868988,21.921494 C118.758145,22.1941687 118.617928,22.4363614 118.448337,22.6480723 C118.278193,22.8608916 118.084771,23.0454458 117.868072,23.2028434 C117.651928,23.360241 117.441325,23.4893735 117.237373,23.5919036 L117.08441,23.6678313 L119.74853,27.5307229 C119.519084,27.5556627 119.259711,27.5684096 118.970964,27.5684096 C118.741518,27.5684096 118.512072,27.5556627 118.282627,27.5307229 L115.350819,23.2854217 L115.350819,23.234988 L115.452795,23.209494 C115.682241,23.1496386 115.924434,23.0692771 116.179373,22.9673012 C116.434313,22.8653253 116.669855,22.7312048 116.886554,22.565494 C117.103253,22.3997831 117.283928,22.2002651 117.428578,21.9663855 C117.573229,21.7330602 117.645277,21.4498554 117.645277,21.118988 C117.645277,20.5071325 117.464602,20.0521205 117.103253,19.7550602 C116.741904,19.4574458 116.255855,19.3089157 115.644,19.3089157 C115.499349,19.3089157 115.365783,19.3127952 115.242193,19.3211084 C115.119157,19.3299759 114.981157,19.3427229 114.828193,19.3593494 L114.828193,27.5307229 C114.73453,27.5390361 114.630337,27.5473494 114.515614,27.5556627 C114.400892,27.5645301 114.292819,27.5684096 114.190843,27.5684096 C114.088867,27.5684096 113.978024,27.5661928 113.859422,27.5623133 C113.740265,27.5578795 113.629976,27.5473494 113.528,27.5307229 L113.528,18.3523373" id="Fill-19" fill="#595A5A"></path>
                    <path d="M124.311952,18.3650843 C124.40506,18.3484578 124.504819,18.3357108 124.611229,18.3273976 C124.717639,18.3185301 124.817398,18.3146506 124.91106,18.3146506 C125.004169,18.3146506 125.103928,18.3185301 125.210337,18.3273976 C125.316747,18.3357108 125.416506,18.3484578 125.510169,18.3650843 L129.499976,25.2484578 L129.499976,18.3650843 C129.601952,18.3484578 129.708361,18.3357108 129.818651,18.3273976 C129.92894,18.3185301 130.039229,18.3146506 130.150072,18.3146506 C130.243181,18.3146506 130.341277,18.3185301 130.443253,18.3273976 C130.545229,18.3357108 130.642771,18.3484578 130.736434,18.3650843 L130.736434,27.5307229 C130.642771,27.5473494 130.543012,27.5600964 130.437157,27.5684096 C130.330747,27.5767229 130.230434,27.5811566 130.137325,27.5811566 C130.043663,27.5811566 129.943904,27.5767229 129.837494,27.5684096 C129.731084,27.5600964 129.631325,27.5473494 129.538217,27.5307229 L125.535663,20.6850361 L125.535663,27.5307229 C125.442,27.5473494 125.342241,27.5600964 125.235831,27.5684096 C125.129422,27.5767229 125.025783,27.5811566 124.923807,27.5811566 C124.812964,27.5811566 124.704892,27.5767229 124.598482,27.5684096 C124.492072,27.5600964 124.396747,27.5473494 124.311952,27.5307229 L124.311952,18.3650843" id="Fill-20" fill="#595A5A"></path>
                    <path d="M137.555518,24.2796867 L140.347108,24.2796867 L138.94494,19.6015422 L137.555518,24.2796867 L137.555518,24.2796867 Z M140.691277,25.4147229 L137.211904,25.4147229 L136.586747,27.5307229 C136.476458,27.5473494 136.366169,27.5600964 136.25588,27.5684096 C136.145036,27.5767229 136.034747,27.5811566 135.923904,27.5811566 C135.804747,27.5811566 135.688361,27.5767229 135.573639,27.5684096 C135.458916,27.5600964 135.354723,27.5473494 135.26106,27.5307229 L138.243855,18.3650843 C138.354699,18.3484578 138.473301,18.3357108 138.600771,18.3273976 C138.728241,18.3185301 138.860145,18.3146506 138.995928,18.3146506 C139.115084,18.3146506 139.23812,18.3185301 139.36559,18.3273976 C139.49306,18.3357108 139.616096,18.3484578 139.735253,18.3650843 L142.705301,27.5307229 C142.60388,27.5473494 142.489157,27.5600964 142.361687,27.5684096 C142.234217,27.5767229 142.110627,27.5811566 141.992024,27.5811566 C141.881181,27.5811566 141.768675,27.5767229 141.653952,27.5684096 C141.539229,27.5600964 141.430602,27.5473494 141.328627,27.5307229 L140.691277,25.4147229 L140.691277,25.4147229 Z" id="Fill-21" fill="#595A5A"></path>
                    <path d="M148.01747,19.4995663 L145.633783,19.4995663 C145.616602,19.4147711 145.603855,19.3211084 145.595542,19.2191325 C145.587229,19.1171566 145.582795,19.0201687 145.582795,18.926506 C145.582795,18.8328434 145.587229,18.7369639 145.595542,18.6394217 C145.603855,18.5418795 145.616602,18.4504337 145.633783,18.3650843 L151.701349,18.3650843 C151.71853,18.4504337 151.731277,18.5396627 151.73959,18.6327711 C151.747904,18.7264337 151.752337,18.8200964 151.752337,18.913759 C151.752337,19.0074217 151.747904,19.1066265 151.73959,19.2130361 C151.731277,19.3194458 151.71853,19.4147711 151.701349,19.4995663 L149.317663,19.4995663 L149.317663,27.5307229 C149.122024,27.5556627 148.909759,27.5684096 148.680313,27.5684096 C148.442554,27.5684096 148.221422,27.5556627 148.01747,27.5307229 L148.01747,19.4995663" id="Fill-22" fill="#595A5A"></path>
                    <path d="M156.341253,18.3650843 C156.443229,18.3484578 156.549084,18.3357108 156.659928,18.3273976 C156.770217,18.3185301 156.880506,18.3146506 156.990795,18.3146506 C157.101639,18.3146506 157.211928,18.3185301 157.322771,18.3273976 C157.43306,18.3357108 157.53947,18.3484578 157.641446,18.3650843 L157.641446,27.5307229 C157.53947,27.5473494 157.435277,27.5600964 157.328867,27.5684096 C157.222458,27.5767229 157.109952,27.5811566 156.990795,27.5811566 C156.880506,27.5811566 156.768,27.5767229 156.653277,27.5684096 C156.538554,27.5600964 156.434361,27.5473494 156.341253,27.5307229 L156.341253,18.3650843" id="Fill-23" fill="#595A5A"></path>
                    <path d="M166.615325,26.5613976 C167.039855,26.5613976 167.407301,26.4788193 167.717663,26.3131084 C168.028024,26.1473976 168.285181,25.9074217 168.489133,25.5926265 C168.693084,25.2789398 168.846048,24.9004096 168.948024,24.4586988 C169.05,24.0164337 169.100988,23.5148675 169.100988,22.9545542 C169.100988,22.402 169.05,21.9026506 168.948024,21.456506 C168.846048,21.0103614 168.693084,20.6323855 168.489133,20.3220241 C168.285181,20.0122169 168.028024,19.7739036 167.717663,19.6081928 C167.407301,19.4424819 167.039855,19.3593494 166.615325,19.3593494 C166.190241,19.3593494 165.822795,19.4424819 165.512434,19.6081928 C165.202072,19.7739036 164.94547,20.0122169 164.741518,20.3220241 C164.537566,20.6323855 164.384602,21.0103614 164.282627,21.456506 C164.180651,21.9026506 164.129663,22.402 164.129663,22.9545542 C164.129663,23.5148675 164.180651,24.0164337 164.282627,24.4586988 C164.384602,24.9004096 164.537566,25.2789398 164.741518,25.5926265 C164.94547,25.9074217 165.202072,26.1473976 165.512434,26.3131084 C165.822795,26.4788193 166.190241,26.5613976 166.615325,26.5613976 L166.615325,26.5613976 Z M166.615325,27.6831325 C165.952482,27.6831325 165.378867,27.5661928 164.894482,27.3328675 C164.410096,27.0995422 164.008289,26.772 163.690169,26.3513494 C163.37094,25.9306988 163.133181,25.4313494 162.975783,24.8533012 C162.818386,24.2758072 162.740241,23.6423373 162.740241,22.9545542 C162.740241,22.2656627 162.818386,21.632747 162.975783,21.0546988 C163.133181,20.4772048 163.37094,19.9778554 163.690169,19.5572048 C164.008289,19.1365542 164.410096,18.8073494 164.894482,18.5695904 C165.378867,18.3312771 165.952482,18.2126747 166.615325,18.2126747 C167.278169,18.2126747 167.851783,18.3312771 168.336169,18.5695904 C168.820554,18.8073494 169.221807,19.1365542 169.540482,19.5572048 C169.859157,19.9778554 170.095253,20.4772048 170.248217,21.0546988 C170.401181,21.632747 170.477108,22.2656627 170.477108,22.9545542 C170.477108,23.6423373 170.401181,24.2758072 170.248217,24.8533012 C170.095253,25.4313494 169.859157,25.9306988 169.540482,26.3513494 C169.221807,26.772 168.820554,27.0995422 168.336169,27.3328675 C167.851783,27.5661928 167.278169,27.6831325 166.615325,27.6831325 L166.615325,27.6831325 Z" id="Fill-24" fill="#595A5A"></path>
                    <path d="M175.576458,18.3650843 C175.669566,18.3484578 175.769325,18.3357108 175.875735,18.3273976 C175.982145,18.3185301 176.081904,18.3146506 176.175566,18.3146506 C176.268675,18.3146506 176.368434,18.3185301 176.474843,18.3273976 C176.581253,18.3357108 176.681012,18.3484578 176.774675,18.3650843 L180.764482,25.2484578 L180.764482,18.3650843 C180.866458,18.3484578 180.972313,18.3357108 181.083157,18.3273976 C181.193446,18.3185301 181.303735,18.3146506 181.414578,18.3146506 C181.507687,18.3146506 181.605783,18.3185301 181.707759,18.3273976 C181.809735,18.3357108 181.907277,18.3484578 182.00094,18.3650843 L182.00094,27.5307229 C181.907277,27.5473494 181.807518,27.5600964 181.701108,27.5684096 C181.595253,27.5767229 181.49494,27.5811566 181.401831,27.5811566 C181.308169,27.5811566 181.20841,27.5767229 181.102,27.5684096 C180.996145,27.5600964 180.895831,27.5473494 180.802723,27.5307229 L176.800169,20.6850361 L176.800169,27.5307229 C176.706506,27.5473494 176.606747,27.5600964 176.500337,27.5684096 C176.393928,27.5767229 176.290289,27.5811566 176.188313,27.5811566 C176.07747,27.5811566 175.969398,27.5767229 175.862988,27.5684096 C175.756578,27.5600964 175.661253,27.5473494 175.576458,27.5307229 L175.576458,18.3650843" id="Fill-25" fill="#595A5A"></path>
                    <path d="M188.820024,24.2796867 L191.611614,24.2796867 L190.21,19.6015422 L188.820024,24.2796867 L188.820024,24.2796867 Z M191.955783,25.4147229 L188.47641,25.4147229 L187.851253,27.5307229 C187.740964,27.5473494 187.630675,27.5600964 187.519831,27.5684096 C187.409542,27.5767229 187.299253,27.5811566 187.18841,27.5811566 C187.069807,27.5811566 186.952867,27.5767229 186.838145,27.5684096 C186.723422,27.5600964 186.619229,27.5473494 186.52612,27.5307229 L189.508361,18.3650843 C189.619205,18.3484578 189.738361,18.3357108 189.865277,18.3273976 C189.992747,18.3185301 190.124651,18.3146506 190.260434,18.3146506 C190.37959,18.3146506 190.502627,18.3185301 190.630096,18.3273976 C190.757566,18.3357108 190.880602,18.3484578 190.999759,18.3650843 L193.969807,27.5307229 C193.868386,27.5473494 193.753663,27.5600964 193.626193,27.5684096 C193.498723,27.5767229 193.375133,27.5811566 193.25653,27.5811566 C193.145687,27.5811566 193.033181,27.5767229 192.918458,27.5684096 C192.803735,27.5600964 192.695108,27.5473494 192.593133,27.5307229 L191.955783,25.4147229 L191.955783,25.4147229 Z" id="Fill-26" fill="#595A5A"></path>
                    <path d="M198.507735,18.3650843 C198.601398,18.3484578 198.701157,18.3357108 198.807566,18.3273976 C198.913422,18.3185301 199.025928,18.3146506 199.145084,18.3146506 C199.255373,18.3146506 199.366217,18.3185301 199.476506,18.3273976 C199.586795,18.3357108 199.693205,18.3484578 199.795181,18.3650843 L199.795181,26.383494 L203.389831,26.383494 C203.407012,26.4771566 203.417542,26.5741446 203.421976,26.6761205 C203.425855,26.7786506 203.428072,26.8723133 203.428072,26.9565542 C203.428072,27.1610602 203.415325,27.3522651 203.389831,27.5307229 L198.507735,27.5307229 L198.507735,18.3650843" id="Fill-27" fill="#595A5A"></path>
                    <path d="M74.6674217,36.1338313 C74.742241,36.1216386 74.8203855,36.1122169 74.9018554,36.1061205 C74.9827711,36.0994699 75.064241,36.0966988 75.1451566,36.0966988 C75.2266265,36.0966988 75.3075422,36.0994699 75.389012,36.1061205 C75.4699277,36.1122169 75.5480723,36.1216386 75.6234458,36.1338313 L75.6234458,42.8708916 C75.5480723,42.8836386 75.4715904,42.8930602 75.3934458,42.8991566 C75.3153012,42.905253 75.2327229,42.9085783 75.1451566,42.9085783 C75.064241,42.9085783 74.9811084,42.905253 74.8968675,42.8991566 C74.8126265,42.8930602 74.7361446,42.8836386 74.6674217,42.8708916 L74.6674217,36.1338313" id="Fill-28" fill="#595A5A"></path>
                    <path d="M77.272241,36.1338313 C77.3409639,36.1216386 77.4146747,36.1122169 77.4928193,36.1061205 C77.5704096,36.0994699 77.6441205,36.0966988 77.7128434,36.0966988 C77.7815663,36.0966988 77.8547229,36.0994699 77.9328675,36.1061205 C78.011012,36.1122169 78.0841687,36.1216386 78.1534458,36.1338313 L81.0858072,41.1938313 L81.0858072,36.1338313 C81.1606265,36.1216386 81.2387711,36.1122169 81.320241,36.1061205 C81.4011566,36.0994699 81.4826265,36.0966988 81.5635422,36.0966988 C81.6322651,36.0966988 81.7043133,36.0994699 81.7791325,36.1061205 C81.8539518,36.1122169 81.926,36.1216386 81.9947229,36.1338313 L81.9947229,42.8708916 C81.926,42.8836386 81.8522892,42.8930602 81.7746988,42.8991566 C81.6965542,42.905253 81.6228434,42.9085783 81.5541205,42.9085783 C81.4853976,42.9085783 81.412241,42.905253 81.3340964,42.8991566 C81.2559518,42.8930602 81.1827952,42.8836386 81.1140723,42.8708916 L78.1717349,37.8397108 L78.1717349,42.8708916 C78.103012,42.8836386 78.0298554,42.8930602 77.9517108,42.8991566 C77.8735663,42.905253 77.7970843,42.9085783 77.7222651,42.9085783 C77.6407952,42.9085783 77.560988,42.905253 77.4833976,42.8991566 C77.405253,42.8930602 77.3343133,42.8836386 77.272241,42.8708916 L77.272241,36.1338313" id="Fill-29" fill="#595A5A"></path>
                    <path d="M83.4750361,41.8494699 C83.6812048,41.9248434 83.8967952,41.990241 84.1218072,42.0462169 C84.3462651,42.102747 84.6211566,42.131012 84.9459277,42.131012 C85.4580241,42.131012 85.840988,42.0262651 86.0937108,41.8167711 C86.346988,41.6078313 86.4733494,41.3251807 86.4733494,40.9688193 C86.4733494,40.794241 86.446747,40.6440482 86.3935422,40.5193494 C86.3408916,40.3940964 86.2610843,40.2865783 86.1546747,40.196241 C86.0488193,40.1053494 85.9158072,40.0227711 85.756747,39.9473976 C85.5971325,39.8725783 85.4114699,39.7916627 85.1992048,39.7040964 L84.6649398,39.488506 C84.4837108,39.4136867 84.3185542,39.3305542 84.1683614,39.2402169 C84.0187229,39.1498795 83.8890361,39.0390361 83.7793012,38.9076867 C83.6701205,38.7763373 83.5842169,38.6250361 83.5221446,38.4532289 C83.4595181,38.2814217 83.4284819,38.0769157 83.4284819,37.8397108 C83.4284819,37.2710843 83.6219036,36.8260482 84.008747,36.5040482 C84.3961446,36.1826024 84.9398313,36.0213253 85.639253,36.0213253 C85.9390843,36.0213253 86.2233976,36.0468193 86.4921928,36.0966988 C86.7604337,36.1465783 86.9981928,36.2092048 87.2043614,36.2840241 C87.1727711,36.5461687 87.1040482,36.8055422 86.9981928,37.0615904 C86.8291566,36.9989639 86.6340723,36.942988 86.4123855,36.8931084 C86.1906988,36.8432289 85.9390843,36.8182892 85.6580964,36.8182892 C85.2646024,36.8182892 84.9614458,36.8975422 84.7491807,37.0566024 C84.5369157,37.2162169 84.430506,37.4550843 84.430506,37.773759 C84.430506,37.9051084 84.4571084,38.0220482 84.5103133,38.1251325 C84.5635181,38.2282169 84.6333494,38.3185542 84.7214699,38.3966988 C84.8084819,38.4753976 84.9115663,38.5452289 85.0301687,38.6078554 C85.1493253,38.6704819 85.2740241,38.7264578 85.4048193,38.7763373 L85.9296627,38.982506 C86.1796145,39.0822651 86.4013012,39.187012 86.5952771,39.2961928 C86.7886988,39.4059277 86.9544096,39.5339518 87.0918554,39.6802651 C87.228747,39.8271325 87.333494,40.0006024 87.4055422,40.2006747 C87.4775904,40.400747 87.5136145,40.6351807 87.5136145,40.9034217 C87.5136145,41.5468675 87.2913735,42.0545301 86.848,42.4258554 C86.4046265,42.7977349 85.7833494,42.9833976 84.9836145,42.9833976 C84.7901928,42.9833976 84.6150602,42.9773012 84.4587711,42.9645542 C84.3024819,42.9523614 84.1572771,42.9329639 84.0231566,42.9085783 C83.8890361,42.8836386 83.7593494,42.8520482 83.6340964,42.8149157 C83.5093976,42.7772289 83.3813735,42.7367711 83.2500241,42.692988 C83.2627711,42.5555422 83.2910361,42.4147711 83.3342651,42.2712289 C83.3780482,42.1276867 83.4251566,41.9869157 83.4750361,41.8494699" id="Fill-30" fill="#595A5A"></path>
                    <path d="M89.7060964,39.601012 C89.8058554,39.613759 89.8934217,39.6226265 89.968241,39.6292771 C90.0430602,39.6353735 90.152241,39.6386988 90.2963373,39.6386988 C90.489759,39.6386988 90.6820723,39.6181928 90.8721687,39.5771807 C91.0628193,39.5372771 91.2329639,39.4635663 91.3831566,39.3571566 C91.5327952,39.2513012 91.6530602,39.1060964 91.7433976,38.9215422 C91.8342892,38.7375422 91.8797349,38.4986747 91.8797349,38.2049398 C91.8797349,37.9488916 91.8403855,37.7333012 91.7627952,37.5581687 C91.6846506,37.3835904 91.5765783,37.2428193 91.4391325,37.1369639 C91.3016867,37.0305542 91.1359759,36.9557349 90.9425542,36.9119518 C90.7491325,36.8681687 90.5396386,36.846 90.3146265,36.846 C90.0835181,36.846 89.8806747,36.8554217 89.7060964,36.8742651 L89.7060964,39.601012 L89.7060964,39.601012 Z M88.7500723,36.1244096 C88.8437349,36.1122169 88.9545783,36.0994699 89.0826024,36.0872771 C89.2106265,36.0745301 89.3453012,36.0634458 89.4855181,36.0545783 C89.6262892,36.0451566 89.7670602,36.0373976 89.9072771,36.030747 C90.047494,36.0246506 90.1838313,36.0213253 90.3146265,36.0213253 C90.658241,36.0213253 90.9846747,36.056241 91.2939277,36.1244096 C91.6031807,36.1936867 91.874747,36.3122892 92.1091807,36.4807711 C92.3436145,36.649253 92.5292771,36.8726024 92.6667229,37.1508193 C92.8041687,37.4284819 92.8728916,37.7770843 92.8728916,38.1955181 C92.8728916,38.6327952 92.7991807,38.9963614 92.6528675,39.2867711 C92.5054458,39.5771807 92.3120241,39.810506 92.071494,39.9850843 C91.8309639,40.1602169 91.5577349,40.283253 91.2518072,40.3553012 C90.9458795,40.4273494 90.6333012,40.4628193 90.3146265,40.4628193 C90.1960241,40.4628193 90.0918313,40.4617108 90.0009398,40.4583855 C89.9100482,40.4550602 89.8119518,40.4473012 89.7060964,40.4351084 L89.7060964,42.8708916 C89.5559036,42.8897349 89.3968434,42.8991566 89.2278072,42.8991566 C89.152988,42.8991566 89.0737349,42.897494 88.9889398,42.8947229 C88.9046988,42.8913976 88.8248916,42.8836386 88.7500723,42.8708916 L88.7500723,36.1244096 L88.7500723,36.1244096 Z" id="Fill-31" fill="#595A5A"></path>
                    <path d="M94.0533735,36.1338313 C94.128747,36.1216386 94.2063373,36.1122169 94.2878072,36.1061205 C94.3687229,36.0994699 94.4501928,36.0966988 94.5316627,36.0966988 C94.6125783,36.0966988 94.6940482,36.0994699 94.7749639,36.1061205 C94.8564337,36.1122169 94.9345783,36.1216386 95.0093976,36.1338313 L95.0093976,42.8708916 C94.9345783,42.8836386 94.8580964,42.8930602 94.7799518,42.8991566 C94.701253,42.905253 94.6192289,42.9085783 94.5316627,42.9085783 C94.4501928,42.9085783 94.3676145,42.905253 94.2833735,42.8991566 C94.1991325,42.8930602 94.1220964,42.8836386 94.0533735,42.8708916 L94.0533735,36.1338313" id="Fill-32" fill="#595A5A"></path>
                    <path d="M96.6770361,36.1244096 C96.8144819,36.1122169 96.9391807,36.0994699 97.0516867,36.0872771 C97.1641928,36.0745301 97.2750361,36.0634458 97.3842169,36.0545783 C97.4933976,36.0451566 97.6075663,36.0373976 97.7261687,36.030747 C97.8447711,36.0246506 97.9761205,36.0213253 98.1196627,36.0213253 C98.4388916,36.0213253 98.754241,36.0529157 99.0662651,36.1155422 C99.3782892,36.1781687 99.656506,36.2873494 99.9003614,36.4436386 C100.143663,36.5993735 100.342072,36.8105301 100.49559,37.076 C100.648,37.3414699 100.725036,37.6773253 100.725036,38.083012 C100.725036,38.3263133 100.684024,38.5485542 100.603108,38.7480723 C100.521639,38.9481446 100.418554,39.1260482 100.293855,39.2823373 C100.168602,39.4386265 100.026723,39.5744096 99.8676627,39.6896867 C99.7080482,39.8055181 99.5534217,39.9008434 99.4037831,39.9756627 L99.2912771,40.0321928 L101.249325,42.8708916 C101.080843,42.8897349 100.890193,42.8991566 100.677928,42.8991566 C100.509446,42.8991566 100.34041,42.8897349 100.171928,42.8708916 L98.0171325,39.7506506 L98.0171325,39.7135181 L98.0919518,39.6946747 C98.2604337,39.6508916 98.4388916,39.5915904 98.6256627,39.5162169 C98.8135422,39.4413976 98.9864578,39.3433012 99.1460723,39.2213735 C99.3051325,39.1 99.4381446,38.9531325 99.544,38.7807711 C99.6504096,38.6095181 99.7036145,38.4016867 99.7036145,38.1578313 C99.7036145,37.7083614 99.5706024,37.3741687 99.3051325,37.155253 C99.0396627,36.9368916 98.6821928,36.8271566 98.2327229,36.8271566 C98.1263133,36.8271566 98.0276627,36.8304819 97.9373253,36.8365783 C97.8464337,36.8432289 97.745012,36.8526506 97.632506,36.8648434 L97.632506,42.8708916 C97.5637831,42.876988 97.4873012,42.8836386 97.4030602,42.8897349 C97.3188193,42.8958313 97.2395663,42.8991566 97.1641928,42.8991566 C97.0893735,42.8991566 97.0079036,42.897494 96.9203373,42.8947229 C96.8333253,42.8913976 96.7518554,42.8836386 96.6770361,42.8708916 L96.6770361,36.1244096" id="Fill-33" fill="#595A5A"></path>
                    <path d="M102.251904,36.1338313 C102.326723,36.1216386 102.404867,36.1122169 102.486337,36.1061205 C102.567253,36.0994699 102.648723,36.0966988 102.729639,36.0966988 C102.811108,36.0966988 102.892024,36.0994699 102.973494,36.1061205 C103.05441,36.1122169 103.132554,36.1216386 103.207928,36.1338313 L103.207928,42.8708916 C103.132554,42.8836386 103.056072,42.8930602 102.977928,42.8991566 C102.899783,42.905253 102.817205,42.9085783 102.729639,42.9085783 C102.648723,42.9085783 102.56559,42.905253 102.481349,42.8991566 C102.397108,42.8930602 102.320627,42.8836386 102.251904,42.8708916 L102.251904,36.1338313" id="Fill-34" fill="#595A5A"></path>
                    <path d="M104.856723,36.1338313 C104.925446,36.1216386 104.998602,36.1122169 105.077301,36.1061205 C105.154892,36.0994699 105.228602,36.0966988 105.297325,36.0966988 C105.366048,36.0966988 105.439205,36.0994699 105.517349,36.1061205 C105.595494,36.1122169 105.668651,36.1216386 105.737373,36.1338313 L108.670289,41.1938313 L108.670289,36.1338313 C108.745108,36.1216386 108.823253,36.1122169 108.904723,36.1061205 C108.985639,36.0994699 109.067108,36.0966988 109.148024,36.0966988 C109.216747,36.0966988 109.288795,36.0994699 109.363614,36.1061205 C109.438434,36.1122169 109.510482,36.1216386 109.579205,36.1338313 L109.579205,42.8708916 C109.510482,42.8836386 109.436771,42.8930602 109.359181,42.8991566 C109.281036,42.905253 109.207325,42.9085783 109.138602,42.9085783 C109.06988,42.9085783 108.996723,42.905253 108.918578,42.8991566 C108.840434,42.8930602 108.767277,42.8836386 108.698554,42.8708916 L105.756217,37.8397108 L105.756217,42.8708916 C105.687494,42.8836386 105.614337,42.8930602 105.536193,42.8991566 C105.458048,42.905253 105.381566,42.9085783 105.306747,42.9085783 C105.225277,42.9085783 105.14547,42.905253 105.06788,42.8991566 C104.989181,42.8930602 104.919349,42.8836386 104.856723,42.8708916 L104.856723,36.1338313" id="Fill-35" fill="#595A5A"></path>
                    <path d="M115.125807,39.3854217 C115.201181,39.3732289 115.278771,39.3638072 115.360241,39.3571566 C115.441157,39.3510602 115.522627,39.3477349 115.604096,39.3477349 C115.685012,39.3477349 115.766482,39.3510602 115.847398,39.3571566 C115.928867,39.3638072 116.003687,39.3732289 116.07241,39.3854217 L116.07241,42.6741446 C115.94106,42.7306747 115.797518,42.7788916 115.641229,42.8193494 C115.48494,42.8603614 115.323108,42.8913976 115.154072,42.913012 C114.98559,42.9346265 114.816554,42.9523614 114.648072,42.9645542 C114.47959,42.9773012 114.319976,42.9833976 114.170337,42.9833976 C113.670434,42.9833976 113.220964,42.905253 112.820819,42.7489639 C112.421229,42.5932289 112.083711,42.3665542 111.809373,42.0700482 C111.533928,41.7735422 111.323325,41.4121928 111.176458,40.9876627 C111.02959,40.5631325 110.956434,40.0820723 110.956434,39.5444819 C110.956434,39.0074458 111.031253,38.5219518 111.181446,38.0874458 C111.331084,37.653494 111.545012,37.2832771 111.823229,36.9773494 C112.100892,36.6714217 112.432313,36.4353253 112.816386,36.2701687 C113.200458,36.1044578 113.626651,36.0213253 114.095518,36.0213253 C114.451325,36.0213253 114.760578,36.0451566 115.022723,36.0917108 C115.285422,36.1388193 115.522627,36.2025542 115.734892,36.2840241 C115.722699,36.4275663 115.696096,36.5600241 115.655639,36.682506 C115.614627,36.8038795 115.56641,36.9335663 115.50988,37.071012 C115.335301,37.0150361 115.146313,36.9646024 114.94347,36.9208193 C114.740072,36.8775904 114.485687,36.8554217 114.179759,36.8554217 C113.848337,36.8554217 113.547398,36.9152771 113.275277,37.0333253 C113.003711,37.1524819 112.772602,37.3253976 112.581952,37.5537349 C112.391301,37.7815181 112.243325,38.062506 112.136916,38.3966988 C112.03106,38.7308916 111.977855,39.1138554 111.977855,39.5444819 C111.977855,39.9884096 112.032169,40.3708193 112.141904,40.6928193 C112.251084,41.0142651 112.405711,41.282506 112.605783,41.4986506 C112.805301,41.7136867 113.041398,41.872747 113.312964,41.9758313 C113.58453,42.0789157 113.886024,42.131012 114.216892,42.131012 C114.416964,42.131012 114.592096,42.1199277 114.741735,42.097759 C114.891928,42.0761446 115.019952,42.0495422 115.125807,42.018506 L115.125807,39.3854217" id="Fill-36" fill="#595A5A"></path>
                    <path d="M120.787687,39.601012 C120.887446,39.613759 120.975012,39.6226265 121.049831,39.6292771 C121.124651,39.6353735 121.234386,39.6386988 121.377928,39.6386988 C121.571349,39.6386988 121.763663,39.6181928 121.953759,39.5771807 C122.14441,39.5372771 122.314554,39.4635663 122.464747,39.3571566 C122.614386,39.2513012 122.734651,39.1060964 122.825542,38.9215422 C122.91588,38.7375422 122.961325,38.4986747 122.961325,38.2049398 C122.961325,37.9488916 122.921976,37.7333012 122.844386,37.5581687 C122.766241,37.3835904 122.658169,37.2428193 122.520723,37.1369639 C122.383277,37.0305542 122.217566,36.9557349 122.024145,36.9119518 C121.830723,36.8681687 121.621229,36.846 121.396217,36.846 C121.165108,36.846 120.962265,36.8554217 120.787687,36.8742651 L120.787687,39.601012 L120.787687,39.601012 Z M119.831663,36.1244096 C119.925325,36.1122169 120.036169,36.0994699 120.164193,36.0872771 C120.292217,36.0745301 120.426892,36.0634458 120.567108,36.0545783 C120.70788,36.0451566 120.848651,36.0373976 120.988867,36.030747 C121.129639,36.0246506 121.265422,36.0213253 121.396217,36.0213253 C121.739831,36.0213253 122.066265,36.056241 122.375518,36.1244096 C122.684771,36.1936867 122.956337,36.3122892 123.190771,36.4807711 C123.425205,36.649253 123.610867,36.8726024 123.748313,37.1508193 C123.885759,37.4284819 123.954482,37.7770843 123.954482,38.1955181 C123.954482,38.6327952 123.880771,38.9963614 123.734458,39.2867711 C123.58759,39.5771807 123.394169,39.810506 123.153084,39.9850843 C122.912554,40.1602169 122.639325,40.283253 122.333398,40.3553012 C122.02747,40.4273494 121.714892,40.4628193 121.396217,40.4628193 C121.277614,40.4628193 121.173422,40.4617108 121.08253,40.4583855 C120.992193,40.4550602 120.893542,40.4473012 120.787687,40.4351084 L120.787687,42.8708916 C120.637494,42.8897349 120.478434,42.8991566 120.309952,42.8991566 C120.234578,42.8991566 120.155325,42.897494 120.07053,42.8947229 C119.986289,42.8913976 119.907036,42.8836386 119.831663,42.8708916 L119.831663,36.1244096 L119.831663,36.1244096 Z" id="Fill-37" fill="#595A5A"></path>
                    <path d="M125.668675,40.4816627 L127.72094,40.4816627 L126.690096,37.0433012 L125.668675,40.4816627 L125.668675,40.4816627 Z M127.974217,41.315759 L125.415952,41.315759 L124.95706,42.8708916 C124.87559,42.8836386 124.79412,42.8930602 124.713205,42.8991566 C124.631735,42.905253 124.550819,42.9085783 124.469349,42.9085783 C124.382337,42.9085783 124.296434,42.905253 124.211639,42.8991566 C124.127952,42.8930602 124.05147,42.8836386 123.982193,42.8708916 L126.174675,36.1338313 C126.256145,36.1216386 126.343711,36.1122169 126.437373,36.1061205 C126.531036,36.0994699 126.62747,36.0966988 126.727783,36.0966988 C126.815349,36.0966988 126.905687,36.0994699 126.999349,36.1061205 C127.093012,36.1122169 127.183904,36.1216386 127.270916,36.1338313 L129.45453,42.8708916 C129.379711,42.8836386 129.294916,42.8930602 129.201253,42.8991566 C129.10759,42.905253 129.017253,42.9085783 128.929687,42.9085783 C128.848217,42.9085783 128.765639,42.905253 128.681398,42.8991566 C128.597157,42.8930602 128.517349,42.8836386 128.44253,42.8708916 L127.974217,41.315759 L127.974217,41.315759 Z" id="Fill-38" fill="#595A5A"></path>
                    <path d="M130.262578,41.8494699 C130.468747,41.9248434 130.684337,41.990241 130.908795,42.0462169 C131.133807,42.102747 131.408699,42.131012 131.73347,42.131012 C132.245566,42.131012 132.62853,42.0262651 132.881253,41.8167711 C133.13453,41.6078313 133.260892,41.3251807 133.260892,40.9688193 C133.260892,40.794241 133.234289,40.6440482 133.181084,40.5193494 C133.12788,40.3940964 133.048627,40.2865783 132.942217,40.196241 C132.836361,40.1053494 132.703349,40.0227711 132.544289,39.9473976 C132.384675,39.8725783 132.199012,39.7916627 131.986747,39.7040964 L131.452482,39.488506 C131.271253,39.4136867 131.106096,39.3305542 130.955904,39.2402169 C130.806265,39.1498795 130.676578,39.0390361 130.566843,38.9076867 C130.457663,38.7763373 130.371759,38.6250361 130.309133,38.4532289 C130.24706,38.2814217 130.216024,38.0769157 130.216024,37.8397108 C130.216024,37.2710843 130.409446,36.8260482 130.796289,36.5040482 C131.183687,36.1826024 131.727373,36.0213253 132.426795,36.0213253 C132.726627,36.0213253 133.01094,36.0468193 133.279735,36.0966988 C133.547976,36.1465783 133.785735,36.2092048 133.991904,36.2840241 C133.960313,36.5461687 133.89159,36.8055422 133.785735,37.0615904 C133.616699,36.9989639 133.421614,36.942988 133.199928,36.8931084 C132.978241,36.8432289 132.726627,36.8182892 132.445639,36.8182892 C132.052145,36.8182892 131.748988,36.8975422 131.536723,37.0566024 C131.324458,37.2162169 131.218048,37.4550843 131.218048,37.773759 C131.218048,37.9051084 131.244651,38.0220482 131.297855,38.1251325 C131.35106,38.2282169 131.420892,38.3185542 131.509012,38.3966988 C131.596024,38.4753976 131.699108,38.5452289 131.817711,38.6078554 C131.936867,38.6704819 132.061566,38.7264578 132.192361,38.7763373 L132.717205,38.982506 C132.967157,39.0822651 133.188843,39.187012 133.382819,39.2961928 C133.576241,39.4059277 133.741952,39.5339518 133.879398,39.6802651 C134.016289,39.8271325 134.121036,40.0006024 134.193084,40.2006747 C134.265133,40.400747 134.301157,40.6351807 134.301157,40.9034217 C134.301157,41.5468675 134.078916,42.0545301 133.635542,42.4258554 C133.192169,42.7977349 132.570892,42.9833976 131.771157,42.9833976 C131.577735,42.9833976 131.402602,42.9773012 131.246313,42.9645542 C131.090024,42.9523614 130.944819,42.9329639 130.810699,42.9085783 C130.676578,42.8836386 130.546892,42.8520482 130.421639,42.8149157 C130.29694,42.7772289 130.168916,42.7367711 130.037566,42.692988 C130.050313,42.5555422 130.078024,42.4147711 130.121807,42.2712289 C130.16559,42.1276867 130.212699,41.9869157 130.262578,41.8494699" id="Fill-39" fill="#595A5A"></path>
                    <path d="M135.120843,41.8494699 C135.326458,41.9248434 135.542048,41.990241 135.76706,42.0462169 C135.992072,42.102747 136.26641,42.131012 136.591735,42.131012 C137.103831,42.131012 137.486241,42.0262651 137.739518,41.8167711 C137.992241,41.6078313 138.119157,41.3251807 138.119157,40.9688193 C138.119157,40.794241 138.092,40.6440482 138.039349,40.5193494 C137.986145,40.3940964 137.906337,40.2865783 137.800482,40.196241 C137.694072,40.1053494 137.56106,40.0227711 137.402,39.9473976 C137.24294,39.8725783 137.056723,39.7916627 136.844458,39.7040964 L136.310747,39.488506 C136.128964,39.4136867 135.963807,39.3305542 135.814169,39.2402169 C135.663976,39.1498795 135.534289,39.0390361 135.425108,38.9076867 C135.315928,38.7763373 135.22947,38.6250361 135.167398,38.4532289 C135.104771,38.2814217 135.073735,38.0769157 135.073735,37.8397108 C135.073735,37.2710843 135.267157,36.8260482 135.654554,36.5040482 C136.041952,36.1826024 136.585084,36.0213253 137.28506,36.0213253 C137.584892,36.0213253 137.869205,36.0468193 138.137446,36.0966988 C138.406241,36.1465783 138.644,36.2092048 138.849614,36.2840241 C138.818578,36.5461687 138.749855,36.8055422 138.644,37.0615904 C138.474964,36.9989639 138.27988,36.942988 138.057639,36.8931084 C137.836506,36.8432289 137.584892,36.8182892 137.303904,36.8182892 C136.91041,36.8182892 136.607253,36.8975422 136.394988,37.0566024 C136.182723,37.2162169 136.076313,37.4550843 136.076313,37.773759 C136.076313,37.9051084 136.102916,38.0220482 136.15612,38.1251325 C136.209325,38.2282169 136.279157,38.3185542 136.366723,38.3966988 C136.454289,38.4753976 136.557373,38.5452289 136.675976,38.6078554 C136.794578,38.6704819 136.919831,38.7264578 137.050627,38.7763373 L137.57547,38.982506 C137.825422,39.0822651 138.047108,39.187012 138.241084,39.2961928 C138.434506,39.4059277 138.599663,39.5339518 138.737108,39.6802651 C138.874554,39.8271325 138.979301,40.0006024 139.051349,40.2006747 C139.122843,40.400747 139.158867,40.6351807 139.158867,40.9034217 C139.158867,41.5468675 138.937181,42.0545301 138.493807,42.4258554 C138.04988,42.7977349 137.428602,42.9833976 136.628867,42.9833976 C136.435446,42.9833976 136.260313,42.9773012 136.104578,42.9645542 C135.948289,42.9523614 135.803084,42.9329639 135.66841,42.9085783 C135.534289,42.8836386 135.404602,42.8520482 135.279904,42.8149157 C135.154651,42.7772289 135.026627,42.7367711 134.895831,42.692988 C134.908024,42.5555422 134.936289,42.4147711 134.980072,42.2712289 C135.023855,42.1276867 135.07041,41.9869157 135.120843,41.8494699" id="Fill-40" fill="#595A5A"></path>
                    <path d="M140.39588,36.1338313 C140.470699,36.1216386 140.548843,36.1122169 140.630313,36.1061205 C140.710675,36.0994699 140.792699,36.0966988 140.873614,36.0966988 C140.95453,36.0966988 141.036,36.0994699 141.116916,36.1061205 C141.198386,36.1122169 141.27653,36.1216386 141.351349,36.1338313 L141.351349,42.8708916 C141.27653,42.8836386 141.200048,42.8930602 141.121904,42.8991566 C141.043759,42.905253 140.961181,42.9085783 140.873614,42.9085783 C140.792699,42.9085783 140.709566,42.905253 140.625325,42.8991566 C140.541084,42.8930602 140.464602,42.8836386 140.39588,42.8708916 L140.39588,36.1338313" id="Fill-41" fill="#595A5A"></path>
                    <path d="M145.596096,42.1592771 C145.908675,42.1592771 146.178578,42.097759 146.406361,41.9758313 C146.634699,41.8544578 146.823687,41.6776627 146.973325,41.4465542 C147.123518,41.2154458 147.23547,40.9377831 147.310843,40.6124578 C147.385663,40.288241 147.423349,39.9196867 147.423349,39.5073494 C147.423349,39.1011084 147.385663,38.7342169 147.310843,38.4061205 C147.23547,38.0785783 147.123518,37.8003614 146.973325,37.5725783 C146.823687,37.344241 146.634699,37.1696627 146.406361,37.0477349 C146.178578,36.9258072 145.908675,36.8648434 145.596096,36.8648434 C145.283518,36.8648434 145.013614,36.9258072 144.785831,37.0477349 C144.557494,37.1696627 144.368506,37.344241 144.218867,37.5725783 C144.068675,37.8003614 143.956169,38.0785783 143.881349,38.4061205 C143.80653,38.7342169 143.768843,39.1011084 143.768843,39.5073494 C143.768843,39.9196867 143.80653,40.288241 143.881349,40.6124578 C143.956169,40.9377831 144.068675,41.2154458 144.218867,41.4465542 C144.368506,41.6776627 144.557494,41.8544578 144.785831,41.9758313 C145.013614,42.097759 145.283518,42.1592771 145.596096,42.1592771 L145.596096,42.1592771 Z M145.596096,42.9833976 C145.10894,42.9833976 144.687181,42.897494 144.331373,42.7256867 C143.975012,42.5538795 143.679614,42.3133494 143.445735,42.0040964 C143.211301,41.6953976 143.036723,41.3279518 142.920892,40.9034217 C142.80506,40.4783373 142.747422,40.0133494 142.747422,39.5073494 C142.747422,39.0013494 142.80506,38.5358072 142.920892,38.1112771 C143.036723,37.6861928 143.211301,37.3193012 143.445735,37.0100482 C143.679614,36.7007952 143.975012,36.4586024 144.331373,36.2840241 C144.687181,36.1094458 145.10894,36.0213253 145.596096,36.0213253 C146.083253,36.0213253 146.505012,36.1094458 146.860819,36.2840241 C147.217181,36.4586024 147.512578,36.7007952 147.746458,37.0100482 C147.980892,37.3193012 148.153807,37.6861928 148.266313,38.1112771 C148.378819,38.5358072 148.435349,39.0013494 148.435349,39.5073494 C148.435349,40.0133494 148.378819,40.4783373 148.266313,40.9034217 C148.153807,41.3279518 147.980892,41.6953976 147.746458,42.0040964 C147.512578,42.3133494 147.217181,42.5538795 146.860819,42.7256867 C146.505012,42.897494 146.083253,42.9833976 145.596096,42.9833976 L145.596096,42.9833976 Z" id="Fill-42" fill="#595A5A"></path>
                    <path d="M149.831422,36.1338313 C149.900145,36.1216386 149.973301,36.1122169 150.051446,36.1061205 C150.12959,36.0994699 150.202747,36.0966988 150.27147,36.0966988 C150.340193,36.0966988 150.413349,36.0994699 150.491494,36.1061205 C150.569639,36.1122169 150.642795,36.1216386 150.712072,36.1338313 L153.644988,41.1938313 L153.644988,36.1338313 C153.719807,36.1216386 153.797398,36.1122169 153.878867,36.1061205 C153.959783,36.0994699 154.041253,36.0966988 154.122723,36.0966988 C154.191446,36.0966988 154.26294,36.0994699 154.337759,36.1061205 C154.413133,36.1122169 154.484627,36.1216386 154.553904,36.1338313 L154.553904,42.8708916 C154.484627,42.8836386 154.41147,42.8930602 154.333325,42.8991566 C154.255181,42.905253 154.182024,42.9085783 154.113301,42.9085783 C154.044578,42.9085783 153.970867,42.905253 153.893277,42.8991566 C153.815133,42.8930602 153.741422,42.8836386 153.672699,42.8708916 L150.730916,37.8397108 L150.730916,42.8708916 C150.662193,42.8836386 150.588482,42.8930602 150.510337,42.8991566 C150.432193,42.905253 150.355711,42.9085783 150.280892,42.9085783 C150.199976,42.9085783 150.120169,42.905253 150.042024,42.8991566 C149.96388,42.8930602 149.893494,42.8836386 149.831422,42.8708916 L149.831422,36.1338313" id="Fill-43" fill="#595A5A"></path>
                    <path d="M158.422892,36.1338313 C158.498265,36.1216386 158.575855,36.1122169 158.657325,36.1061205 C158.738241,36.0994699 158.819711,36.0966988 158.901181,36.0966988 C158.982096,36.0966988 159.063566,36.0994699 159.144482,36.1061205 C159.225952,36.1122169 159.304096,36.1216386 159.378916,36.1338313 L159.378916,42.8708916 C159.304096,42.8836386 159.227614,42.8930602 159.14947,42.8991566 C159.071325,42.905253 158.988747,42.9085783 158.901181,42.9085783 C158.819711,42.9085783 158.737133,42.905253 158.652892,42.8991566 C158.568651,42.8930602 158.492169,42.8836386 158.422892,42.8708916 L158.422892,36.1338313" id="Fill-44" fill="#595A5A"></path>
                    <path d="M161.028265,36.1338313 C161.096988,36.1216386 161.170145,36.1122169 161.248289,36.1061205 C161.326434,36.0994699 161.39959,36.0966988 161.468313,36.0966988 C161.537036,36.0966988 161.610747,36.0994699 161.688892,36.1061205 C161.766482,36.1122169 161.840193,36.1216386 161.908916,36.1338313 L164.841831,41.1938313 L164.841831,36.1338313 C164.916651,36.1216386 164.994241,36.1122169 165.075711,36.1061205 C165.156627,36.0994699 165.238096,36.0966988 165.319566,36.0966988 C165.388289,36.0966988 165.459783,36.0994699 165.535157,36.1061205 C165.609976,36.1122169 165.68147,36.1216386 165.750747,36.1338313 L165.750747,42.8708916 C165.68147,42.8836386 165.608313,42.8930602 165.530169,42.8991566 C165.452024,42.905253 165.378867,42.9085783 165.310145,42.9085783 C165.241422,42.9085783 165.167711,42.905253 165.09012,42.8991566 C165.011976,42.8930602 164.938265,42.8836386 164.869542,42.8708916 L161.927759,37.8397108 L161.927759,42.8708916 C161.859036,42.8836386 161.785325,42.8930602 161.707181,42.8991566 C161.629036,42.905253 161.552554,42.9085783 161.477735,42.9085783 C161.396819,42.9085783 161.317012,42.905253 161.238867,42.8991566 C161.160723,42.8930602 161.090337,42.8836386 161.028265,42.8708916 L161.028265,36.1338313" id="Fill-45" fill="#595A5A"></path>
                    <path d="M169.451253,41.8494699 C169.657422,41.9248434 169.873012,41.990241 170.098024,42.0462169 C170.323036,42.102747 170.597373,42.131012 170.922699,42.131012 C171.434795,42.131012 171.817205,42.0262651 172.070482,41.8167711 C172.323205,41.6078313 172.45012,41.3251807 172.45012,40.9688193 C172.45012,40.794241 172.422964,40.6440482 172.370313,40.5193494 C172.317108,40.3940964 172.237301,40.2865783 172.130892,40.196241 C172.025036,40.1053494 171.892024,40.0227711 171.732964,39.9473976 C171.573904,39.8725783 171.387687,39.7916627 171.175422,39.7040964 L170.641157,39.488506 C170.459928,39.4136867 170.294771,39.3305542 170.144578,39.2402169 C169.99494,39.1498795 169.865253,39.0390361 169.756072,38.9076867 C169.646892,38.7763373 169.560434,38.6250361 169.498361,38.4532289 C169.435735,38.2814217 169.404699,38.0769157 169.404699,37.8397108 C169.404699,37.2710843 169.59812,36.8260482 169.985518,36.5040482 C170.372916,36.1826024 170.916048,36.0213253 171.616024,36.0213253 C171.915855,36.0213253 172.199614,36.0468193 172.46841,36.0966988 C172.737205,36.1465783 172.97441,36.2092048 173.180578,36.2840241 C173.148988,36.5461687 173.080819,36.8055422 172.97441,37.0615904 C172.805928,36.9989639 172.610843,36.942988 172.388602,36.8931084 C172.166916,36.8432289 171.915855,36.8182892 171.634313,36.8182892 C171.241373,36.8182892 170.938217,36.8975422 170.725952,37.0566024 C170.513133,37.2162169 170.407277,37.4550843 170.407277,37.773759 C170.407277,37.9051084 170.433325,38.0220482 170.487084,38.1251325 C170.539735,38.2282169 170.61012,38.3185542 170.697687,38.3966988 C170.785253,38.4753976 170.888337,38.5452289 171.00694,38.6078554 C171.125542,38.6704819 171.250795,38.7264578 171.38159,38.7763373 L171.906434,38.982506 C172.155831,39.0822651 172.378072,39.187012 172.571494,39.2961928 C172.76547,39.4059277 172.930627,39.5339518 173.068072,39.6802651 C173.205518,39.8271325 173.310265,40.0006024 173.382313,40.2006747 C173.453807,40.400747 173.489831,40.6351807 173.489831,40.9034217 C173.489831,41.5468675 173.268145,42.0545301 172.824771,42.4258554 C172.380843,42.7977349 171.759566,42.9833976 170.959831,42.9833976 C170.76641,42.9833976 170.591277,42.9773012 170.434988,42.9645542 C170.279253,42.9523614 170.133494,42.9329639 169.999373,42.9085783 C169.865253,42.8836386 169.735566,42.8520482 169.610867,42.8149157 C169.485614,42.7772289 169.35759,42.7367711 169.226795,42.692988 C169.238988,42.5555422 169.267253,42.4147711 169.311036,42.2712289 C169.354819,42.1276867 169.401373,41.9869157 169.451253,41.8494699" id="Fill-46" fill="#595A5A"></path>
                    <path d="M174.726843,36.1338313 L178.427904,36.1338313 C178.446193,36.2590843 178.455614,36.3965301 178.455614,36.5461687 C178.455614,36.6154458 178.454506,36.6869398 178.451181,36.761759 C178.447855,36.8365783 178.440096,36.9058554 178.427904,36.9679277 L175.682313,36.9679277 L175.682313,38.8982651 L177.874795,38.8982651 C177.887542,38.9608916 177.89641,39.0279518 177.90306,39.1 C177.909157,39.171494 177.912482,39.2418795 177.912482,39.3106024 C177.912482,39.3793253 177.909157,39.4508193 177.90306,39.5261928 C177.89641,39.601012 177.887542,39.6697349 177.874795,39.7323614 L175.682313,39.7323614 L175.682313,42.0367952 L178.502723,42.0367952 C178.521566,42.1620482 178.530988,42.299494 178.530988,42.4491325 C178.530988,42.5178554 178.529325,42.5899036 178.526,42.6647229 C178.522675,42.7395422 178.51547,42.8088193 178.502723,42.8708916 L174.726843,42.8708916 L174.726843,36.1338313" id="Fill-47" fill="#595A5A"></path>
                    <path d="M179.767446,36.1244096 C179.904892,36.1122169 180.030145,36.0994699 180.142096,36.0872771 C180.255157,36.0745301 180.365446,36.0634458 180.475181,36.0545783 C180.584361,36.0451566 180.697976,36.0373976 180.817133,36.030747 C180.935735,36.0246506 181.06653,36.0213253 181.210627,36.0213253 C181.529301,36.0213253 181.844651,36.0529157 182.156675,36.1155422 C182.469253,36.1781687 182.74747,36.2873494 182.990771,36.4436386 C183.234627,36.5993735 183.433036,36.8105301 183.586,37.076 C183.738964,37.3414699 183.815446,37.6773253 183.815446,38.083012 C183.815446,38.3263133 183.774988,38.5485542 183.693518,38.7480723 C183.612602,38.9481446 183.509518,39.1260482 183.384265,39.2823373 C183.259566,39.4386265 183.117133,39.5744096 182.958072,39.6896867 C182.798458,39.8055181 182.644386,39.9008434 182.494193,39.9756627 L182.381687,40.0321928 L184.340289,42.8708916 C184.171253,42.8897349 183.980602,42.8991566 183.768337,42.8991566 C183.599855,42.8991566 183.431373,42.8897349 183.262337,42.8708916 L181.107542,39.7506506 L181.107542,39.7135181 L181.182361,39.6946747 C181.351398,39.6508916 181.529301,39.5915904 181.716627,39.5162169 C181.903952,39.4413976 182.077422,39.3433012 182.236482,39.2213735 C182.395542,39.1 182.528554,38.9531325 182.634964,38.7807711 C182.741373,38.6095181 182.794024,38.4016867 182.794024,38.1578313 C182.794024,37.7083614 182.661012,37.3741687 182.395542,37.155253 C182.130072,36.9368916 181.772602,36.8271566 181.323133,36.8271566 C181.216723,36.8271566 181.118627,36.8304819 181.027735,36.8365783 C180.937398,36.8432289 180.835422,36.8526506 180.72347,36.8648434 L180.72347,42.8708916 C180.654747,42.876988 180.578265,42.8836386 180.494024,42.8897349 C180.409229,42.8958313 180.329976,42.8991566 180.255157,42.8991566 C180.179783,42.8991566 180.098313,42.897494 180.011301,42.8947229 C179.923735,42.8913976 179.842265,42.8836386 179.767446,42.8708916 L179.767446,36.1244096" id="Fill-48" fill="#595A5A"></path>
                    <path d="M184.724361,36.1338313 C184.79253,36.1216386 184.875663,36.1122169 184.972096,36.1061205 C185.069084,36.0994699 185.161084,36.0966988 185.248651,36.0966988 C185.329566,36.0966988 185.418795,36.0994699 185.515783,36.1061205 C185.612771,36.1122169 185.701446,36.1216386 185.782916,36.1338313 L187.488241,41.8965783 L189.184145,36.1338313 C189.352627,36.1155422 189.524434,36.1061205 189.699566,36.1061205 C189.780482,36.1061205 189.866386,36.1077831 189.957277,36.1105542 C190.047614,36.1138795 190.130193,36.1216386 190.205566,36.1338313 L188.013084,42.8708916 C187.931614,42.8836386 187.841277,42.8930602 187.740964,42.8991566 C187.641205,42.905253 187.547542,42.9085783 187.459976,42.9085783 C187.37241,42.9085783 187.28041,42.905253 187.183976,42.8991566 C187.086988,42.8930602 186.994434,42.8836386 186.907422,42.8708916 L184.724361,36.1338313" id="Fill-49" fill="#595A5A"></path>
                    <path d="M191.23641,36.1338313 C191.311229,36.1216386 191.388819,36.1122169 191.470289,36.1061205 C191.551205,36.0994699 191.632675,36.0966988 191.714145,36.0966988 C191.79506,36.0966988 191.87653,36.0994699 191.957446,36.1061205 C192.038916,36.1122169 192.11706,36.1216386 192.19188,36.1338313 L192.19188,42.8708916 C192.11706,42.8836386 192.040578,42.8930602 191.962434,42.8991566 C191.883735,42.905253 191.801711,42.9085783 191.714145,42.9085783 C191.632675,42.9085783 191.550096,42.905253 191.465855,42.8991566 C191.381614,42.8930602 191.305133,42.8836386 191.23641,42.8708916 L191.23641,36.1338313" id="Fill-50" fill="#595A5A"></path>
                    <path d="M198.141398,41.8871566 C198.278843,42.1559518 198.36641,42.4147711 198.404096,42.6647229 C198.141398,42.7772289 197.873157,42.8586988 197.598265,42.9085783 C197.322819,42.9584578 197.026313,42.9833976 196.708193,42.9833976 C196.221036,42.9833976 195.782096,42.9035904 195.391373,42.7445301 C195.001205,42.5854699 194.671446,42.3571325 194.402651,42.0606265 C194.13441,41.7641205 193.928241,41.4033253 193.784699,40.978241 C193.640602,40.5537108 193.569108,40.0759759 193.569108,39.5444819 C193.569108,39.0074458 193.640602,38.5219518 193.784699,38.0874458 C193.928241,37.653494 194.13441,37.2832771 194.402651,36.9773494 C194.671446,36.6714217 194.999542,36.4353253 195.38694,36.2701687 C195.774337,36.1044578 196.208289,36.0213253 196.689349,36.0213253 C197.045711,36.0213253 197.351084,36.0468193 197.607687,36.0966988 C197.863735,36.1465783 198.091518,36.2058795 198.29159,36.2746024 C198.278843,36.4186988 198.252241,36.5511566 198.211783,36.6730843 C198.171325,36.7944578 198.122554,36.9241446 198.066578,37.0615904 C197.972916,37.0305542 197.882024,37.0022892 197.795012,36.9773494 C197.707446,36.9524096 197.613783,36.930241 197.514024,36.9119518 C197.413711,36.8931084 197.302867,36.879253 197.181494,36.8698313 C197.059012,36.8598554 196.920458,36.8554217 196.764169,36.8554217 C196.08359,36.8554217 195.553759,37.0865301 195.175783,37.548747 C194.797807,38.0115181 194.608819,38.6765783 194.608819,39.5444819 C194.608819,39.9884096 194.662024,40.3724819 194.768434,40.697253 C194.874289,41.0220241 195.024482,41.2908193 195.218458,41.5030843 C195.41188,41.7153494 195.644651,41.8744096 195.916217,41.9808193 C196.187783,42.0872289 196.492602,42.1398795 196.829566,42.1398795 C197.092265,42.1398795 197.32947,42.1182651 197.541735,42.0744819 C197.754,42.031253 197.954072,41.9686265 198.141398,41.8871566" id="Fill-51" fill="#595A5A"></path>
                    <path d="M199.631687,36.1338313 L203.332747,36.1338313 C203.351036,36.2590843 203.360458,36.3965301 203.360458,36.5461687 C203.360458,36.6154458 203.359349,36.6869398 203.356024,36.761759 C203.352699,36.8365783 203.34494,36.9058554 203.332747,36.9679277 L200.587157,36.9679277 L200.587157,38.8982651 L202.779639,38.8982651 C202.792386,38.9608916 202.801253,39.0279518 202.807904,39.1 C202.814,39.171494 202.817325,39.2418795 202.817325,39.3106024 C202.817325,39.3793253 202.814,39.4508193 202.807904,39.5261928 C202.801253,39.601012 202.792386,39.6697349 202.779639,39.7323614 L200.587157,39.7323614 L200.587157,42.0367952 L203.407566,42.0367952 C203.42641,42.1620482 203.435831,42.299494 203.435831,42.4491325 C203.435831,42.5178554 203.434169,42.5899036 203.430843,42.6647229 C203.427518,42.7395422 203.419759,42.8088193 203.407566,42.8708916 L199.631687,42.8708916 L199.631687,36.1338313" id="Fill-52" fill="#595A5A"></path>
                    <path d="M74.7838072,32.1756145 L203.605976,32.1756145" id="Stroke-53" stroke="#EFA72E" stroke-width="0.992"></path>
                </g>
            </g>
        </g>
    </g>
</svg>