<?xml version="1.0" encoding="UTF-8" standalone="no"?>
<svg width="29px" height="20px" viewBox="0 0 29 20" version="1.1" xmlns="http://www.w3.org/2000/svg" xmlns:xlink="http://www.w3.org/1999/xlink">
    <!-- Generator: Sketch 3.8.2 (29753) - http://www.bohemiancoding.com/sketch -->
    <title>offer-to</title>
    <desc>Created with Sketch.</desc>
    <defs></defs>
    <g id="Page-1" stroke="none" stroke-width="1" fill="none" fill-rule="evenodd">
        <g id="course-enrollment-selected" transform="translate(-459.000000, -18.000000)">
            <g id="offer-to" transform="translate(459.000000, 18.000000)">
                <path d="M28.6900382,6.98679179 L21.8959401,0.192693697 C21.6389494,-0.0642312324 21.2222361,-0.0642312324 20.9651796,0.192693697 L18.5518358,2.60603747 L10.4067759,2.60603747 C8.53031569,2.60603747 6.7436213,3.46104994 5.56100322,4.90941159 L4.27769478,4.90941159 L4.27769478,3.92225125 C4.27769478,3.55884463 3.98306033,3.26414436 3.61958789,3.26414436 L0.65810689,3.26414436 C0.294634455,3.26414436 0,3.55884463 0,3.92225125 C0,4.28565788 0.294634455,4.58035814 0.65810689,4.58035814 L2.961481,4.58035814 L2.961481,13.7938546 L0.65810689,13.7938546 C0.294634455,13.7938546 0,14.0885549 0,14.4519615 C0,14.8153681 0.294634455,15.1100684 0.65810689,15.1100684 L3.61958789,15.1100684 C3.98306033,15.1100684 4.27769478,14.8153681 4.27769478,14.4519615 L4.27769478,12.8066943 L5.56100322,12.8066943 C6.7436213,14.2550559 8.5303815,15.1100684 10.4067759,15.1100684 L11.1724174,15.1100684 L15.8695895,19.8072405 C15.9981178,19.935703 16.1665274,20 16.3349369,20 C16.5033465,20 16.6718218,19.935703 16.8002843,19.8072405 L28.6900382,7.91755237 C28.8134333,7.79409152 28.8827977,7.62673493 28.8827977,7.45220499 C28.8827977,7.27767504 28.8134333,7.11025265 28.6900382,6.98679179 L28.6900382,6.98679179 Z M6.41588407,11.7609624 C6.29202835,11.5909734 6.09433304,11.4904805 5.88400208,11.4904805 L4.27769478,11.4904805 L4.27769478,6.22562537 L5.88406789,6.22562537 C6.09439885,6.22562537 6.29202835,6.12513244 6.41594988,5.95514343 C7.34368316,4.68223309 8.83561148,3.92225125 10.4068417,3.92225125 L17.2356878,3.92225125 L13.3312055,7.82673362 C12.7822127,7.42495936 12.2928444,6.93611756 11.8810669,6.37021145 C11.667248,6.07630091 11.2557338,6.01141157 10.9616916,6.2252305 C10.6677811,6.43904943 10.6028917,6.85062948 10.8167107,7.14454002 C12.0654685,8.86101441 13.9079045,9.98841732 16.0046331,10.3190502 C16.407921,10.3826892 16.6842601,10.7624826 16.6206869,11.1657705 C16.5571138,11.5689926 16.177781,11.8449369 15.7740324,11.7816928 C13.9524584,11.4944291 12.2754046,10.6952241 10.9243111,9.47055301 C10.6550138,9.22646116 10.238827,9.24686248 9.99473514,9.51615981 C9.7506433,9.78545715 9.77104461,10.201644 10.040342,10.4457358 C10.1582747,10.5526124 10.2790373,10.6556719 10.401182,10.7568229 L9.07555725,12.0823818 C8.95216221,12.2057769 8.88279774,12.3731993 8.88279774,12.5477292 C8.88279774,12.7222591 8.95216221,12.8896157 9.07555725,13.0130766 L9.82099493,13.7584484 C8.47055959,13.5953037 7.22739567,12.8743477 6.41588407,11.7609624 L6.41588407,11.7609624 Z" id="Shape" fill="#4A4A4A"></path>
                <path d="M16.3349369,18.4111325 L10.4714678,12.5477292 L11.4788978,11.540365 C12.7114004,12.323578 14.0986897,12.8499319 15.5689005,13.0817829 C15.6770275,13.0988279 15.7842989,13.1071201 15.8904515,13.1071201 C16.8843246,13.1069884 17.7611204,12.3827418 17.9207113,11.370705 C18.0973472,10.2505413 17.3297971,9.19553014 16.2096334,9.01882844 C15.6137176,8.92485077 15.0425466,8.75361136 14.507045,8.51221775 L21.4305928,1.58880165 L27.2939961,7.45220499 L16.3349369,18.4111325 L16.3349369,18.4111325 Z" id="Path" fill="#8098D2"></path>
            </g>
        </g>
    </g>
</svg>