<?xml version="1.0" encoding="UTF-8" standalone="no"?>
<svg width="28px" height="30px" viewBox="0 0 28 30" version="1.1" xmlns="http://www.w3.org/2000/svg" xmlns:xlink="http://www.w3.org/1999/xlink">
    <!-- Generator: Sketch 3.8.2 (29753) - http://www.bohemiancoding.com/sketch -->
    <title>unoffer</title>
    <desc>Created with Sketch.</desc>
    <defs></defs>
    <g id="Page-1" stroke="none" stroke-width="1" fill="none" fill-rule="evenodd">
        <g id="course-enrollment-selected" transform="translate(-529.000000, -12.000000)">
            <g id="unoffer" transform="translate(529.000000, 12.000000)">
                <path d="M26.9658557,12.9063711 L20.5800619,6.52057732 C20.3385155,6.27909278 19.9468454,6.27909278 19.7052371,6.52057732 L17.4369278,8.7888866 L9.78136082,8.7888866 C8.0176701,8.7888866 6.33835052,9.59251546 5.22680412,10.9538351 L4.02061856,10.9538351 L4.02061856,10.026 C4.02061856,9.68443299 3.74369072,9.4074433 3.40206186,9.4074433 L0.618556701,9.4074433 C0.276927835,9.4074433 0,9.68443299 0,10.026 C0,10.367567 0.276927835,10.6445567 0.618556701,10.6445567 L2.78350515,10.6445567 L2.78350515,19.3043505 L0.618556701,19.3043505 C0.276927835,19.3043505 0,19.5813402 0,19.9229072 C0,20.2644742 0.276927835,20.5414639 0.618556701,20.5414639 L3.40206186,20.5414639 C3.74369072,20.5414639 4.02061856,20.2644742 4.02061856,19.9229072 L4.02061856,18.3765155 L5.22680412,18.3765155 C6.33835052,19.7378351 8.01773196,20.5414639 9.78136082,20.5414639 L10.5009897,20.5414639 L14.9158763,24.9563505 C15.0366804,25.0770928 15.1949691,25.1375258 15.3532577,25.1375258 C15.5115464,25.1375258 15.6698969,25.0770928 15.7906392,24.9563505 L26.9658557,13.7811959 C27.0818351,13.6651546 27.1470309,13.5078557 27.1470309,13.3438144 C27.1470309,13.1797732 27.0818351,13.0224124 26.9658557,12.9063711 L26.9658557,12.9063711 Z M6.03030928,17.3936289 C5.91389691,17.2338557 5.72808247,17.1394021 5.53039175,17.1394021 L4.02061856,17.1394021 L4.02061856,12.1909485 L5.53045361,12.1909485 C5.72814433,12.1909485 5.91389691,12.0964948 6.03037113,11.9367216 C6.90235052,10.7403093 8.30461856,10.026 9.78142268,10.026 L16.1998763,10.026 L12.5300412,13.6958351 C12.0140412,13.3182062 11.5540825,12.8587423 11.1670515,12.3268454 C10.9660825,12.0505979 10.579299,11.9896082 10.3029278,12.1905773 C10.0266804,12.3915464 9.96569072,12.7783918 10.1666598,13.0546392 C11.3403711,14.6679588 13.0720825,15.7276082 15.0428041,16.0383711 C15.4218557,16.0981856 15.6815876,16.4551546 15.6218351,16.8342062 C15.5620825,17.2131959 15.2055464,17.4725567 14.8260619,17.4131134 C13.1139588,17.1431134 11.5376907,16.3919381 10.2677938,15.240866 C10.0146804,15.0114433 9.62350515,15.0306186 9.39408247,15.283732 C9.16465979,15.5368454 9.18383505,15.9280206 9.43694845,16.1574433 C9.54779381,16.2578969 9.66129897,16.3547629 9.77610309,16.4498351 L8.53014433,17.695732 C8.41416495,17.8117113 8.34896907,17.9690722 8.34896907,18.1331134 C8.34896907,18.2971546 8.41416495,18.4544536 8.53014433,18.5704948 L9.23078351,19.2710722 C7.96150515,19.117732 6.79305155,18.4401031 6.03030928,17.3936289 L6.03030928,17.3936289 Z" id="Shape" fill="#4A4A4A"></path>
                <path d="M15.3532577,23.6441443 L9.84216495,18.1331134 L10.7890515,17.1862887 C11.9474845,17.922433 13.2514021,18.4171546 14.6332577,18.6350722 C14.7348866,18.6510928 14.8357113,18.6588866 14.9354845,18.6588866 C15.8696289,18.6587629 16.693732,17.9780412 16.843732,17.0268247 C17.0097526,15.9739794 16.2883299,14.9823711 15.2354845,14.8162887 C14.6753814,14.7279588 14.1385361,14.5670103 13.6352165,14.3401237 L20.1426804,7.83278351 L25.6537113,13.3438144 L15.3532577,23.6441443 L15.3532577,23.6441443 Z" id="Path" fill="#8098D2"></path>
                <path d="M9.28622671,7.8556701 L5.50512328,1.30660687 C5.26496609,0.890642404 5.40793354,0.362844943 5.82212509,0.12371134 C6.23920431,-0.117089458 6.76592728,0.0264659278 7.00504357,0.440627484 L11.2861204,7.8556701 L9.28622671,7.8556701 Z M18.6071599,24 L21.8068909,29.5420966 C22.0460071,29.9562581 22.5727301,30.0998135 22.9898093,29.8590127 C23.4040009,29.6198791 23.5469683,29.0920816 23.3068111,28.6761172 L20.6070536,24 L18.6071599,24 Z" id="Combined-Shape" fill="#F55123"></path>
            </g>
        </g>
    </g>
</svg>